<svg width="48" height="48" viewBox="0 0 48 48" fill="none" xmlns="http://www.w3.org/2000/svg">
<rect width="48" height="48" rx="24" fill="#D459E8" fill-opacity="0.25"/>
<path d="M12 20.3333C12 16.5621 12 14.6765 13.1716 13.5049C14.3431 12.3333 16.2288 12.3333 20 12.3333H28C31.7712 12.3333 33.6569 12.3333 34.8284 13.5049C36 14.6765 36 16.5621 36 20.3333V24.3333C36 28.1046 36 29.9902 34.8284 31.1618C33.6569 32.3333 31.7712 32.3333 28 32.3333H20.403C19.0104 32.3333 18.3141 32.3333 17.6757 32.5555C17.5299 32.6062 17.3873 32.6653 17.2484 32.7325C16.6398 33.0269 16.1474 33.5192 15.1628 34.5039V34.5039C13.9334 35.7333 13.3187 36.348 12.7826 36.2285C12.6694 36.2033 12.5614 36.1586 12.4635 36.0964C12 35.8017 12 34.9324 12 33.1939V20.3333Z" stroke="#D459E8" stroke-width="2" stroke-linejoin="round"/>
<path d="M19 22.3333C19 22.8856 18.5523 23.3333 18 23.3333C17.4477 23.3333 17 22.8856 17 22.3333C17 21.7811 17.4477 21.3333 18 21.3333C18.5523 21.3333 19 21.7811 19 22.3333Z" stroke="#D459E8" stroke-width="2"/>
<path d="M25 22.3333C25 22.8856 24.5523 23.3333 24 23.3333C23.4477 23.3333 23 22.8856 23 22.3333C23 21.7811 23.4477 21.3333 24 21.3333C24.5523 21.3333 25 21.7811 25 22.3333Z" stroke="#D459E8" stroke-width="2"/>
<path d="M31 22.3333C31 22.8856 30.5523 23.3333 30 23.3333C29.4477 23.3333 29 22.8856 29 22.3333C29 21.7811 29.4477 21.3333 30 21.3333C30.5523 21.3333 31 21.7811 31 22.3333Z" stroke="#D459E8" stroke-width="2"/>
</svg>
