<svg width="48" height="48" viewBox="0 0 48 48" fill="none" xmlns="http://www.w3.org/2000/svg">
<rect width="48" height="48" rx="24" fill="#FEE9CE"/>
<path d="M30.75 23.25C30.75 28.5 24 33 24 33C24 33 17.25 28.5 17.25 23.25C17.25 19.52 20.27 16.5 24 16.5C27.73 16.5 30.75 19.52 30.75 23.25Z" stroke="#FBA63C" stroke-width="2" stroke-linecap="round" stroke-linejoin="round"/>
<path d="M24 25.5C25.2426 25.5 26.25 24.4926 26.25 23.25C26.25 22.0074 25.2426 21 24 21C22.7574 21 21.75 22.0074 21.75 23.25C21.75 24.4926 22.7574 25.5 24 25.5Z" stroke="#FBA63C" stroke-width="2" stroke-linecap="round" stroke-linejoin="round"/>
<path d="M30.85 30.67H33.33C34.81 30.67 36 29.48 36 28V14.67C36 13.19 34.81 12 33.33 12H14.66C13.19 12 12 13.19 12 14.67V36L17.24 30.76" stroke="#FBA63C" stroke-width="2" stroke-linecap="round" stroke-linejoin="round"/>
</svg>
