<svg width="132" height="96" viewBox="0 0 132 96" fill="none" xmlns="http://www.w3.org/2000/svg">
<path d="M11.9707 81.0887C13.5877 81.0887 14.7504 81.4562 15.4553 82.1879C16.1603 82.9195 16.5111 84.002 16.5111 85.4386V86.6414C16.5111 87.8508 16.2638 88.8097 15.7727 89.5146C15.2782 90.2195 14.4764 90.6706 13.3672 90.8644L16.9788 95.3412C17.049 95.4114 17.069 95.5183 17.0423 95.6586C17.0122 95.799 16.902 95.8691 16.7048 95.8691H13.982C13.7982 95.8691 13.6712 95.8491 13.6011 95.8056C13.5309 95.7622 13.4608 95.692 13.3906 95.5952L10.053 91.2051H3.23072V95.4081C3.23072 95.7188 3.07703 95.8725 2.76632 95.8725H0.48444C0.160366 95.8725 0 95.7188 0 95.4081V81.7268C0 81.3058 0.210481 81.092 0.634784 81.092H11.9707V81.0887ZM3.23072 88.6259H11.3159C12.0342 88.6259 12.542 88.4722 12.836 88.1615C13.1333 87.8508 13.2803 87.3797 13.2803 86.7483V85.8629C13.2803 85.2281 13.1333 84.7571 12.836 84.4497C12.542 84.139 12.0342 83.9853 11.3159 83.9853H3.50468C3.32092 83.9853 3.23072 84.0688 3.23072 84.2392V88.6259Z" fill="white"/>
<path d="M33.7605 81.0887C34.0846 81.0887 34.2449 81.2424 34.2449 81.5531V83.5577C34.2449 83.8684 34.0812 84.0221 33.7605 84.0221H24.5361C23.9882 84.0221 23.5338 84.0688 23.173 84.159C22.8155 84.2493 22.5248 84.4063 22.3076 84.6234C22.0905 84.8406 21.9368 85.138 21.8533 85.5088C21.7698 85.883 21.7263 86.344 21.7263 86.892V87.1024H33.6569C33.9676 87.1024 34.1213 87.2561 34.1213 87.5668V89.234C34.1213 89.5447 33.9676 89.6984 33.6569 89.6984H21.7263V90.0559C21.7263 90.6038 21.7698 91.0648 21.8533 91.439C21.9368 91.8132 22.0905 92.1072 22.3076 92.3244C22.5248 92.5415 22.8155 92.6986 23.173 92.7888C23.5304 92.879 23.9848 92.9257 24.5361 92.9257H33.7638C34.0879 92.9257 34.2483 93.0794 34.2483 93.3901V95.3947C34.2483 95.7054 34.0846 95.8591 33.7638 95.8591H24.4726C23.4035 95.8591 22.4947 95.7622 21.7497 95.5618C21.0047 95.3646 20.3933 95.0439 19.9222 94.6029C19.4511 94.1586 19.107 93.5839 18.8865 92.8723C18.6693 92.1607 18.5591 91.2987 18.5591 90.2864V86.6547C18.5591 85.6424 18.6693 84.7838 18.8865 84.0789C19.1037 83.3739 19.4478 82.8026 19.9222 82.3583C20.3933 81.9139 21.0013 81.5898 21.7497 81.386C22.4947 81.1822 23.4035 81.0787 24.4726 81.0787H33.7605V81.0887Z" fill="white"/>
<path d="M40.4324 81.0887C40.7699 81.0887 41.0505 81.1021 41.2777 81.1321C41.5015 81.1589 41.6986 81.219 41.869 81.3125C42.0394 81.4028 42.1998 81.5297 42.3535 81.6934C42.5072 81.8571 42.6842 82.0709 42.8814 82.3382L50.736 92.6418C50.7928 92.742 50.883 92.7888 51.0099 92.7888H51.2004C51.314 92.7888 51.3708 92.7186 51.3708 92.5783V81.5531C51.3708 81.2424 51.5244 81.0887 51.8351 81.0887H54.0535C54.3643 81.0887 54.5179 81.2424 54.5179 81.5531V93.6741C54.5179 94.5328 54.3643 95.1141 54.0535 95.4148C53.7428 95.7188 53.2651 95.8691 52.6169 95.8691H50.7994C50.4754 95.8691 50.2048 95.8558 49.9876 95.8257C49.7704 95.799 49.5767 95.7422 49.4063 95.6553C49.2359 95.5718 49.0722 95.4482 48.9085 95.2845C48.7448 95.1241 48.561 94.9003 48.3505 94.6196L40.4759 84.3161C40.3923 84.2192 40.2988 84.1691 40.2019 84.1691H40.0115C39.8979 84.1691 39.8411 84.2392 39.8411 84.3796V95.4014C39.8411 95.7121 39.6874 95.8658 39.3767 95.8658H37.1583C36.8342 95.8658 36.6738 95.7121 36.6738 95.4014V83.2804C36.6738 82.4217 36.8275 81.8404 37.1382 81.5397C37.4489 81.2357 37.9267 81.0854 38.5748 81.0854H40.4324V81.0887Z" fill="white"/>
<path d="M69.5924 81.0887C70.6615 81.0887 71.5735 81.1923 72.3253 81.3961C73.077 81.5999 73.6917 81.9239 74.1628 82.3683C74.6339 82.8126 74.9747 83.3839 75.1885 84.0889C75.399 84.7938 75.5059 85.6524 75.5059 86.6648V90.2964C75.5059 91.3087 75.399 92.174 75.1885 92.8823C74.978 93.5939 74.6372 94.1719 74.1628 94.6129C73.6917 95.0573 73.0803 95.378 72.3253 95.5718C71.5735 95.7689 70.6615 95.8691 69.5924 95.8691H63.0674C61.9983 95.8691 61.0896 95.7722 60.3446 95.5718C59.5995 95.3747 58.9881 95.0539 58.517 94.6129C58.046 94.1686 57.7018 93.5939 57.4813 92.8823C57.2642 92.1707 57.1539 91.3087 57.1539 90.2964V86.6648C57.1539 85.6524 57.2642 84.7938 57.4813 84.0889C57.6985 83.3839 58.0426 82.8126 58.517 82.3683C58.9881 81.9239 59.5962 81.5999 60.3446 81.3961C61.0896 81.1923 61.9983 81.0887 63.0674 81.0887H69.5924ZM60.3846 90.0625C60.3846 90.6104 60.4314 91.0715 60.5216 91.4457C60.6118 91.8199 60.7655 92.1139 60.976 92.331C61.1865 92.5482 61.4738 92.7052 61.8313 92.7954C62.1888 92.8856 62.6431 92.9324 63.1944 92.9324H69.4654C70.0133 92.9324 70.4677 92.8856 70.8285 92.7954C71.186 92.7052 71.4733 92.5482 71.6838 92.331C71.8943 92.1139 72.0446 91.8165 72.1382 91.4457C72.2284 91.0715 72.2752 90.6104 72.2752 90.0625V86.8953C72.2752 86.3474 72.2284 85.8863 72.1382 85.5121C72.048 85.1379 71.8943 84.8439 71.6838 84.6268C71.4733 84.4096 71.186 84.2526 70.8285 84.1624C70.471 84.0722 70.0167 84.0254 69.4654 84.0254H63.1944C62.6465 84.0254 62.1921 84.0722 61.8313 84.1624C61.4738 84.2526 61.1865 84.4096 60.976 84.6268C60.7655 84.8439 60.6118 85.1413 60.5216 85.5121C60.4314 85.8863 60.3846 86.3474 60.3846 86.8953V90.0625Z" fill="white"/>
<path d="M93.1561 81.0887C93.4802 81.0887 93.6406 81.2424 93.6406 81.5531V83.5577C93.6406 83.8684 93.4802 84.0221 93.1561 84.0221H83.9919C83.444 84.0221 82.9896 84.0689 82.6288 84.1591C82.2713 84.2493 81.984 84.4063 81.7735 84.6235C81.563 84.8406 81.4093 85.138 81.3191 85.5088C81.2289 85.883 81.1821 86.344 81.1821 86.892V87.3129H93.0492C93.36 87.3129 93.5136 87.4666 93.5136 87.7773V89.4445C93.5136 89.7552 93.36 89.9089 93.0492 89.9089H81.1821V95.3981C81.1821 95.7088 81.0284 95.8625 80.7177 95.8625H78.4359C78.1118 95.8625 77.9514 95.7088 77.9514 95.3981V86.6581C77.9514 85.6458 78.0617 84.7872 78.2788 84.0822C78.496 83.3773 78.8401 82.806 79.3145 82.3616C79.7856 81.9173 80.3937 81.5932 81.142 81.3894C81.8871 81.1856 82.7958 81.082 83.8649 81.082H93.1561V81.0887Z" fill="white"/>
<path d="M103.714 81.0887C104.248 81.0887 104.699 81.1989 105.063 81.4161C105.431 81.6333 105.788 82.0609 106.139 82.6923L113.128 95.3813C113.199 95.5217 113.215 95.6386 113.182 95.7288C113.145 95.819 113.045 95.8658 112.875 95.8658H110.192C109.951 95.8658 109.791 95.7756 109.707 95.5918L108.207 92.8689H98.2846L96.8279 95.5918C96.7277 95.7756 96.5673 95.8658 96.3435 95.8658H93.5972C93.4134 95.8658 93.3065 95.819 93.2698 95.7288C93.233 95.6386 93.2531 95.5217 93.3232 95.3813L100.249 82.6923C100.6 82.0576 100.947 81.6333 101.285 81.4161C101.622 81.1989 102.016 81.0887 102.467 81.0887H103.714ZM99.6176 90.42H106.881L103.523 84.2325C103.466 84.1356 103.39 84.0855 103.289 84.0855H103.162C103.062 84.0855 102.985 84.1356 102.929 84.2325L99.6176 90.42Z" fill="white"/>
<path d="M131.37 81.0887C131.567 81.0887 131.678 81.1555 131.698 81.2891C131.718 81.4228 131.681 81.5397 131.581 81.6366L125.099 88.2016L131.878 95.3179C131.975 95.4147 132.015 95.5317 131.995 95.6653C131.975 95.799 131.865 95.8658 131.668 95.8658H128.774C128.604 95.8658 128.47 95.8457 128.373 95.8023C128.273 95.7589 128.183 95.682 128.099 95.5684L122.884 90.0993L117.649 95.5684C117.549 95.682 117.455 95.7589 117.365 95.8023C117.275 95.8457 117.138 95.8658 116.954 95.8658H114.208C114.024 95.8658 113.924 95.799 113.9 95.6653C113.88 95.5317 113.917 95.4147 114.017 95.3179L120.963 88.098L114.692 81.6366C114.609 81.5397 114.572 81.4228 114.585 81.2891C114.599 81.1555 114.705 81.0887 114.903 81.0887H117.796C117.966 81.0887 118.1 81.1121 118.197 81.1622C118.294 81.2123 118.387 81.2858 118.471 81.3827L123.075 86.2805L127.952 81.3827C128.036 81.2858 128.129 81.209 128.226 81.1622C128.323 81.1121 128.46 81.0887 128.627 81.0887H131.37Z" fill="white"/>
<path d="M62.4126 5.35223V8.72661L40.3656 26.7511C39.9146 27.1153 39.654 27.5797 39.5571 28.0608C36.6671 27.9873 34.3485 25.6219 34.3485 22.7152V5.35223C34.3485 2.39882 36.744 0 39.6974 0H57.0604C60.0172 0 62.4126 2.39882 62.4126 5.35223Z" fill="white"/>
<path d="M97.6533 5.35223V22.7152C97.6533 25.6219 95.3346 27.9873 92.4413 28.0608C92.3445 27.5797 92.0839 27.1153 91.6362 26.7511L69.5891 8.72661V5.35223C69.5891 2.39882 71.9846 0 74.9413 0H92.301C95.2578 0 97.6533 2.39882 97.6533 5.35223Z" fill="white"/>
<path d="M62.4126 56.2152V57.9558C62.4126 60.9126 60.0172 63.308 57.0604 63.308H39.6974C36.744 63.308 34.3485 60.9126 34.3485 57.9558V40.5928C34.3485 37.6394 36.744 35.2439 39.6974 35.2439H44.779V53.5324C44.779 55.0157 45.9818 56.2152 47.4652 56.2152H62.4126Z" fill="white"/>
<path d="M97.6533 40.5928V57.9558C97.6533 60.9126 95.2578 63.308 92.301 63.308H74.9413C71.9846 63.308 69.5891 60.9126 69.5891 57.9558V56.2152H84.5366C86.02 56.2152 87.2228 55.0157 87.2228 53.5324V35.2439H92.301C95.2578 35.2439 97.6533 37.6394 97.6533 40.5928Z" fill="#FF6600"/>
</svg>
