<svg width="24" height="24" viewBox="0 0 24 24" fill="none" xmlns="http://www.w3.org/2000/svg">
<path d="M10.6391 2.02903V3.30825L2.28107 10.1413C2.11009 10.2794 2.01129 10.4554 1.97456 10.6378C0.878991 10.61 0 9.71323 0 8.61132V2.02903C0 0.909388 0.908122 0 2.02776 0H8.61006C9.73096 0 10.6391 0.909388 10.6391 2.02903Z" fill="white"/>
<path d="M23.9987 2.02903V8.61132C23.9987 9.71323 23.1197 10.61 22.0229 10.6378C21.9861 10.4554 21.8874 10.2794 21.7176 10.1413L13.3596 3.30825V2.02903C13.3596 0.909388 14.2677 0 15.3886 0H21.9697C23.0906 0 23.9987 0.909388 23.9987 2.02903Z" fill="white"/>
<path d="M10.6391 21.3111V21.971C10.6391 23.0919 9.73096 24 8.61006 24H2.02776C0.908122 24 0 23.0919 0 21.971V15.3887C0 14.269 0.908122 13.3609 2.02776 13.3609H3.95419V20.294C3.95419 20.8564 4.41015 21.3111 4.97251 21.3111H10.6391Z" fill="white"/>
<path d="M23.9987 15.3887V21.971C23.9987 23.0919 23.0906 24 21.9697 24H15.3886C14.2677 24 13.3596 23.0919 13.3596 21.971V21.3111H19.0262C19.5886 21.3111 20.0445 20.8564 20.0445 20.294V13.3609H21.9697C23.0906 13.3609 23.9987 14.269 23.9987 15.3887Z" fill="#FF6600"/>
</svg>
